# xmcd
#
# Track frame offsets: 
#        182
#        22635
#        44335
#        60202
#        81247
#        107725
#        122587
#        144287
#        159277
#        180175
#        196487
#
# Disc length: 2914 seconds
#
# Revision: 3
# Processed by: cddbd v1.5.2PL0 Copyright (c) Steve Scherf et al.
# Submitted via: ExactAudioCopy v1.3
#
DISCID=780b600b
DTITLE=Andrew Cash - Time And Place
DYEAR=1988
DGENRE=blues
TTITLE0=Smile Me Down
TTITLE1=Midnight Gone
TTITLE2=Time And Place
TTITLE3=Flower
TTITLE4=Place
TTITLE5=Do Not Adjust Your Set
TTITLE6=Trail Of Tears
TTITLE7=It's Not Forever
TTITLE8=When Is It Gonna Come
TTITLE9=Morning Train
TTITLE10=When The Wind Blows
EXTD=MillenniumMusicProjectFormat
EXTT0=
EXTT1=
EXTT2=
EXTT3=
EXTT4=
EXTT5=
EXTT6=
EXTT7=
EXTT8=
EXTT9=
EXTT10=
PLAYORDER=
